<svg id="Agrupar_2" data-name="Agrupar 2" xmlns="http://www.w3.org/2000/svg" width="239" height="326" viewBox="0 0 239 326">
  <defs>
    <style>
      .cls-1, .cls-2 {
        fill: none;
        stroke: #fff;
        fill-rule: evenodd;
      }

      .cls-1 {
        stroke-width: 0.73px;
      }

      .cls-2 {
        stroke-width: 1px;
      }

      .cls-3 {
        font-size: 29.167px;
        fill: #fff;
        text-anchor: middle;
        font-family: Poppins;
        font-weight: 500;
      }
    </style>
  </defs>
  <path id="Retângulo_5_copiar" data-name="Retângulo 5 copiar" class="cls-1" d="M32.875,5.1h173.25a29,29,0,0,1,29,29V293.362a29,29,0,0,1-29,29H32.875a29,29,0,0,1-29-29V34.1A29,29,0,0,1,32.875,5.1Z"/>
  <path id="Forma_5" data-name="Forma 5" class="cls-2" d="M119.406,159.641h15.2V146.352h-15.2v13.289Zm19,0h9.5a1.893,1.893,0,0,0,1.824-1.386l3.4-11.9H138.409v13.289Zm-3.8-30.375h-15.2v13.289h15.2V129.266Zm22.423,0.759a1.925,1.925,0,0,0-1.52-.759h-17.1v13.289h15.81l3.116-10.879A1.84,1.84,0,0,0,157.031,130.025Zm-35.725-4.556a1.9,1.9,0,1,1,0-3.8h9.5v-3.8h-9.5a1.9,1.9,0,0,1-1.9-1.9v-7.593a1.905,1.905,0,0,1,1.9-1.9h3.8v-1.9a1.9,1.9,0,0,1,3.8,0v1.9h3.8a1.9,1.9,0,1,1,0,3.8h-9.5v3.8h9.5a1.9,1.9,0,0,1,1.9,1.9v7.594a1.905,1.905,0,0,1-1.9,1.9H145.63a20.9,20.9,0,1,0-37.246,0h12.922Zm17.1,37.969H104.2v-3.8h11.4V146.352H100.878l2.713,9.492H102.3a1.9,1.9,0,0,0-1.9,1.9v7.594a1.9,1.9,0,0,0,1.9,1.9h6.726a7.6,7.6,0,1,0,13.153,0h9.65A7.6,7.6,0,1,0,138.409,163.438Zm-22.8-34.172H99.678L94.5,118.924a1.9,1.9,0,0,0-1.7-1.049H83.3a1.9,1.9,0,1,0,0,3.8h8.327l5.11,10.21,3.058,10.673h15.81V129.266Z"/>
  <text id="Ecommerce" class="cls-3" x="3.875" y="220.773"><tspan x="3.875">Ecommerce</tspan></text>
</svg>
