<svg id="Agrupar_2" data-name="Agrupar 2" xmlns="http://www.w3.org/2000/svg" width="239" height="326" viewBox="0 0 239 326">
  <defs>
    <style>
      .cls-1, .cls-2 {
        fill: none;
        stroke: #fff;
        fill-rule: evenodd;
      }

      .cls-1 {
        stroke-width: 0.73px;
      }

      .cls-2 {
        stroke-width: 1px;
      }

      .cls-3 {
        font-size: 29.159px;
        fill: #fff;
        text-anchor: middle;
        font-family: Poppins;
        font-weight: 500;
      }
    </style>
  </defs>
  <path id="Retângulo_5_copiar" data-name="Retângulo 5 copiar" class="cls-1" d="M32.875,4.746h173.25a29,29,0,0,1,29,29V293a29,29,0,0,1-29,29H32.875a29,29,0,0,1-29-29V33.746A29,29,0,0,1,32.875,4.746Z"/>
  <path id="Forma_4" data-name="Forma 4" class="cls-2" d="M115.724,168.692v7.553a1.894,1.894,0,0,1-1.888,1.888H91.178a1.894,1.894,0,0,1-1.888-1.888v-7.553a1.894,1.894,0,0,1,1.888-1.888h22.658A1.894,1.894,0,0,1,115.724,168.692Zm0-20.769v15.445a5.23,5.23,0,0,0-1.888-.34H91.178a0.413,0.413,0,0,0-.151.019L78.376,147.205a1.845,1.845,0,0,1-.415-1.171V122.659a4.953,4.953,0,0,1,9.837-.812l3.21,19.222,7.024,4-2.757-5.513a6.327,6.327,0,0,1-.359-4.871,6.389,6.389,0,0,1,11.367-1.511l9.12,13.708A1.831,1.831,0,0,1,115.724,147.923Zm7.552,20.769v7.553a1.894,1.894,0,0,0,1.888,1.888h22.658a1.893,1.893,0,0,0,1.888-1.888v-7.553a1.893,1.893,0,0,0-1.888-1.888H125.164A1.894,1.894,0,0,0,123.276,168.692Zm0-20.769v15.445a5.23,5.23,0,0,1,1.888-.34h22.658a0.41,0.41,0,0,1,.151.019l12.651-15.842a1.847,1.847,0,0,0,.415-1.171V122.659a4.952,4.952,0,0,0-9.837-.812l-3.21,19.222-7.024,4,2.757-5.513a6.33,6.33,0,0,0,.359-4.871,6.389,6.389,0,0,0-11.367-1.511l-9.12,13.708A1.831,1.831,0,0,0,123.276,147.923ZM119.5,95.055a20.77,20.77,0,1,0,20.77,20.769A20.782,20.782,0,0,0,119.5,95.055Zm5.664,18.882a1.894,1.894,0,0,1,1.889,1.888v7.553a1.894,1.894,0,0,1-1.889,1.888h-3.776v1.888a1.888,1.888,0,1,1-3.776,0v-1.888h-3.776a1.888,1.888,0,1,1,0-3.776h9.44v-3.777h-9.44a1.894,1.894,0,0,1-1.889-1.888v-7.552a1.894,1.894,0,0,1,1.889-1.889h3.776V104.5a1.888,1.888,0,0,1,3.776,0v1.888h3.776a1.889,1.889,0,1,1,0,3.777h-9.44v3.776h9.44Z"/>
  <text id="Crowdfunds" class="cls-3" x="4.25" y="229.992"><tspan x="4.25">Crowdfunds</tspan></text>
</svg>
