<svg id="Agrupar_2" data-name="Agrupar 2" xmlns="http://www.w3.org/2000/svg" width="239" height="326" viewBox="0 0 239 326">
  <defs>
    <style>
      .cls-1, .cls-2 {
        fill: none;
        stroke: #fff;
        fill-rule: evenodd;
      }

      .cls-1 {
        stroke-width: 0.73px;
      }

      .cls-2 {
        stroke-width: 1px;
      }

      .cls-3 {
        font-size: 29.167px;
        fill: #fff;
        text-anchor: middle;
        font-family: Poppins;
        font-weight: 500;
      }
    </style>
  </defs>
  <path id="Retângulo_5_copiar" data-name="Retângulo 5 copiar" class="cls-1" d="M32.688,5.088H205.937a29,29,0,0,1,29,29v259.29a29,29,0,0,1-29,29H32.688a29,29,0,0,1-29-29V34.088A29,29,0,0,1,32.688,5.088Z"/>
  <path id="Forma_6" data-name="Forma 6" class="cls-2" d="M97.715,151.541h-18.2a37.81,37.81,0,0,1,0-22.655H97.677a63.5,63.5,0,0,0-1.019,11.327A65.49,65.49,0,0,0,97.715,151.541Zm0.774,3.775a66.317,66.317,0,0,0,9.553,21.9,37.849,37.849,0,0,1-27.11-21.9H98.489ZM98.451,125.11H80.932a37.838,37.838,0,0,1,27.185-21.918A67.448,67.448,0,0,0,98.451,125.11ZM128.7,155.316A61.74,61.74,0,0,1,117.859,177.9c-0.774.057-1.548,0.076-2.322,0.076s-1.548-.019-2.322-0.076a61.728,61.728,0,0,1-10.837-22.579H128.7Zm-16.934-37.758a26.29,26.29,0,0,0,1.095,7.552H102.321a64.249,64.249,0,0,1,10.913-22.579c0.755-.057,1.529-0.076,2.3-0.076,0.321,0,.642,0,0.963.019A26.3,26.3,0,0,0,111.761,117.558Zm18.822,25.317a65.141,65.141,0,0,1-1.057,8.666H101.548a59.646,59.646,0,0,1-.057-22.655H114.31A26.533,26.533,0,0,0,130.583,142.875Zm2,12.441h17.558a37.852,37.852,0,0,1-27.11,21.9A66.313,66.313,0,0,0,132.584,155.316Zm20.711-15.1a37.527,37.527,0,0,1-1.737,11.328h-18.2a67.99,67.99,0,0,0,.944-7.835,26.47,26.47,0,0,0,18.974-4.456C153.295,139.571,153.295,139.892,153.295,140.213ZM138.191,94.9a22.655,22.655,0,1,0,22.655,22.654A22.673,22.673,0,0,0,138.191,94.9Zm5.664,20.767a1.893,1.893,0,0,1,1.888,1.887v7.552A1.894,1.894,0,0,1,143.855,127h-3.776v1.888a1.888,1.888,0,0,1-3.776,0V127h-3.775a1.888,1.888,0,0,1,0-3.776h9.439v-3.776h-9.439a1.893,1.893,0,0,1-1.888-1.888v-7.551a1.893,1.893,0,0,1,1.888-1.888H136.3v-1.888a1.888,1.888,0,0,1,3.776,0v1.888h3.776a1.888,1.888,0,1,1,0,3.776h-9.439v3.776h9.439Z"/>
  <text id="Clube_de_negócios" data-name="Clube de negócios" class="cls-3" x="4.062" y="220.351"><tspan x="4.062">Clube de negócios</tspan></text>
</svg>
