<svg id="Agrupar_1" data-name="Agrupar 1" xmlns="http://www.w3.org/2000/svg" width="239" height="326" viewBox="0 0 239 326">
  <defs>
    <style>
      .cls-1, .cls-2 {
        fill: none;
        stroke: #fff;
        fill-rule: evenodd;
      }

      .cls-1 {
        stroke-width: 0.73px;
      }

      .cls-2 {
        stroke-width: 1px;
      }

      .cls-3 {
        font-size: 29.167px;
        fill: #fff;
        text-anchor: middle;
        font-family: Poppins;
        font-weight: 500;
      }
    </style>
  </defs>
  <path id="Retângulo_5" data-name="Retângulo 5" class="cls-1" d="M33.438,4.714H206.687a29,29,0,0,1,29,29V292.973a29,29,0,0,1-29,29H33.438a29,29,0,0,1-29-29V33.714A29,29,0,0,1,33.438,4.714Z"/>
  <path id="Forma_11" data-name="Forma 11" class="cls-2" d="M88.7,133.338H79.94a1.758,1.758,0,0,0-1.753,1.753v35.052A1.757,1.757,0,0,0,79.94,171.9H88.7a1.757,1.757,0,0,0,1.753-1.752V135.091A1.758,1.758,0,0,0,88.7,133.338ZM83.445,161.38a1.753,1.753,0,1,1,1.753-1.753A1.758,1.758,0,0,1,83.445,161.38Zm66.6-26.289v35.052A1.757,1.757,0,0,0,151.8,171.9h8.763a1.757,1.757,0,0,0,1.753-1.752V135.091a1.758,1.758,0,0,0-1.753-1.753H151.8A1.758,1.758,0,0,0,150.044,135.091Zm5.258,24.536a1.753,1.753,0,1,1,1.752,1.753A1.757,1.757,0,0,1,155.3,159.627ZM148.291,142.1v21.032a1.757,1.757,0,0,1-1.752,1.752h-8.763a1.772,1.772,0,0,1-1.49-.824l-8.5-13.6-5.433-2.716-4.662,4.662a8.791,8.791,0,0,1-12.408,0l-2.051-2.051a1.761,1.761,0,0,1-.07-2.4l12.268-14.021a1.721,1.721,0,0,1,1.315-.6h17.526a1.983,1.983,0,0,1,.876.228l12.268,7.011A1.757,1.757,0,0,1,148.291,142.1Zm-7.01,26.289a1.748,1.748,0,0,1-.7,1.4l-7.011,5.258a1.045,1.045,0,0,1-.262.158l-7.011,3.5a1.741,1.741,0,0,1-.788.193H107.982a1.773,1.773,0,0,1-1.49-.824l-8.237-13.2H93.961a1.758,1.758,0,0,1-1.753-1.752V138.6a1.757,1.757,0,0,1,1.753-1.752h14.266l-7.711,8.8a5.242,5.242,0,0,0,.245,7.185l2.05,2.051a12.27,12.27,0,0,0,17.351,0L123.037,152l2.295,1.156,7.975,12.742a5.272,5.272,0,0,0,4.469,2.488h3.5ZM120.25,94.781a22.769,22.769,0,0,0-16.422,38.557h7.466l1.507-1.717a5.25,5.25,0,0,1,3.944-1.788H118.5v-3.5h-3.5a1.753,1.753,0,1,1,0-3.505h8.763v-3.5h-8.763a1.758,1.758,0,0,1-1.753-1.753v-7.01a1.758,1.758,0,0,1,1.753-1.753h3.5v-1.753a1.753,1.753,0,0,1,3.5,0V108.8h3.506a1.753,1.753,0,0,1,0,3.5h-8.763v3.5h8.763a1.758,1.758,0,0,1,1.752,1.753v7.01a1.758,1.758,0,0,1-1.752,1.753H122v3.5h12.269a5.557,5.557,0,0,1,2.436.6l1.647,0.947A22.767,22.767,0,0,0,120.25,94.781Z"/>
  <text id="Parceiro" class="cls-3" x="4.813" y="229.96"><tspan x="4.813">Parceiro</tspan></text>
</svg>
