<svg id="Agrupar_1" data-name="Agrupar 1" xmlns="http://www.w3.org/2000/svg" width="239" height="326" viewBox="0 0 239 326">
  <defs>
    <style>
      .cls-1, .cls-2 {
        fill: none;
        stroke: #fff;
        fill-rule: evenodd;
      }

      .cls-1 {
        stroke-width: 0.73px;
      }

      .cls-2 {
        stroke-width: 1px;
      }

      .cls-3 {
        font-size: 29.167px;
        fill: #fff;
        text-anchor: middle;
        font-family: Poppins;
        font-weight: 500;
      }
    </style>
  </defs>
  <path id="Retângulo_5" data-name="Retângulo 5" class="cls-1" d="M33.375,3.371h173.25a29,29,0,0,1,29,29V291.629a29,29,0,0,1-29,29H33.375a29,29,0,0,1-29-29V32.371A29,29,0,0,1,33.375,3.371Z"/>
  <path id="Forma_2" data-name="Forma 2" class="cls-2" d="M78.193,122.36v52.56a2.637,2.637,0,0,1-2.631,2.628H59.778a2.637,2.637,0,0,1-2.631-2.628V122.36a2.637,2.637,0,0,1,2.631-2.628H75.562A2.637,2.637,0,0,1,78.193,122.36Zm52.614,19.815a10.508,10.508,0,0,0-5.261-1.419H101.869a2.628,2.628,0,1,1,0-5.256h8.708a37.447,37.447,0,0,1-.815-7.884,38.842,38.842,0,0,1,.789-7.884h-19.2a3.114,3.114,0,0,0-.842.131l-7.05,2.339v47.62l7.05,2.339a3.114,3.114,0,0,0,.842.131H104.5a2.572,2.572,0,0,0,1.631-.578l12.443-9.934h6.972A10.5,10.5,0,0,0,130.807,142.175Zm18.415-48.724a34.215,34.215,0,0,0-34.2,34.165,33.864,33.864,0,0,0,.921,7.884h9.6a15.762,15.762,0,0,1,13.074,24.6,33.787,33.787,0,0,0,10.6,1.682A34.164,34.164,0,1,0,149.222,93.451Zm7.892,31.537a2.637,2.637,0,0,1,2.631,2.628v10.512a2.638,2.638,0,0,1-2.631,2.628h-5.261v2.628a2.631,2.631,0,0,1-5.261,0v-2.628H141.33a2.628,2.628,0,1,1,0-5.256h13.154v-5.256H141.33a2.638,2.638,0,0,1-2.631-2.628V117.1a2.637,2.637,0,0,1,2.631-2.628h5.262v-2.628a2.631,2.631,0,0,1,5.261,0v2.628h5.261a2.628,2.628,0,1,1,0,5.256H143.961v5.256h13.153Z"/>
  <text id="cartão_de_crédito" data-name="cartão de crédito" class="cls-3" x="4.75" y="228.617"><tspan x="4.75">cartão</tspan><tspan x="4.75" dy="35">de crédito</tspan></text>
</svg>
