<svg id="Agrupar_2" data-name="Agrupar 2" xmlns="http://www.w3.org/2000/svg" width="239" height="326" viewBox="0 0 239 326">
  <defs>
    <style>
      .cls-1, .cls-2 {
        fill: none;
        stroke: #fff;
        fill-rule: evenodd;
      }

      .cls-1 {
        stroke-width: 0.73px;
      }

      .cls-2 {
        stroke-width: 1px;
      }

      .cls-3 {
        font-size: 29.167px;
        fill: #fff;
        text-anchor: middle;
        font-family: Poppins;
        font-weight: 500;
      }
    </style>
  </defs>
  <path id="Retângulo_5_copiar" data-name="Retângulo 5 copiar" class="cls-1" d="M33.438,4.322H206.687a29,29,0,0,1,29,29v259.29a29,29,0,0,1-29,29H33.438a29,29,0,0,1-29-29V33.322A29,29,0,0,1,33.438,4.322Z"/>
  <path id="Forma_8" data-name="Forma 8" class="cls-2" d="M125.339,130.411a1.894,1.894,0,1,0,0-3.788H121.55v-1.894a1.894,1.894,0,1,0-3.788,0v1.894h-3.788a1.894,1.894,0,0,0-1.894,1.894v7.577a1.894,1.894,0,0,0,1.894,1.894h9.47v3.788h-9.47a1.894,1.894,0,0,0,0,3.788h3.788v1.894a1.894,1.894,0,1,0,3.788,0v-1.894h3.789a1.894,1.894,0,0,0,1.894-1.894v-7.576a1.894,1.894,0,0,0-1.894-1.894h-9.471v-3.789h9.471Zm34.094-3.788h-7.008a34.88,34.88,0,0,0-3.353-7.785l4.129-4.129a1.909,1.909,0,0,0,0-2.69l-9.47-9.471a1.911,1.911,0,0,0-2.69,0l-4.129,4.13a34.92,34.92,0,0,0-7.785-3.353V96.317a1.9,1.9,0,0,0-1.894-1.894H112.08a1.9,1.9,0,0,0-1.894,1.894v7.008a34.88,34.88,0,0,0-7.785,3.353l-4.13-4.13a1.911,1.911,0,0,0-2.69,0l-9.471,9.471a1.91,1.91,0,0,0,0,2.69l4.129,4.129a34.879,34.879,0,0,0-3.353,7.785H79.879a1.9,1.9,0,0,0-1.894,1.894V143.67a1.9,1.9,0,0,0,1.894,1.894h7.008a34.879,34.879,0,0,0,3.353,7.785l-4.129,4.129a1.91,1.91,0,0,0,0,2.69l9.471,9.471a1.909,1.909,0,0,0,2.69,0l4.13-4.129a34.877,34.877,0,0,0,7.785,3.352v7.009a1.9,1.9,0,0,0,1.894,1.894h15.153a1.9,1.9,0,0,0,1.894-1.894v-7.009a34.916,34.916,0,0,0,7.785-3.352l4.129,4.129a1.909,1.909,0,0,0,2.69,0l9.47-9.471a1.909,1.909,0,0,0,0-2.69l-4.129-4.129a34.88,34.88,0,0,0,3.353-7.785h7.008a1.9,1.9,0,0,0,1.894-1.894V128.517A1.9,1.9,0,0,0,159.433,126.623Zm-56.824,9.471a17.047,17.047,0,1,1,17.047,17.047A17.073,17.073,0,0,1,102.609,136.094Z"/>
  <text id="ERP_BPO_BI" data-name="ERP/BPO BI" class="cls-3" x="4.813" y="227.678"><tspan x="4.813">ERP/BPO BI</tspan></text>
</svg>
