<svg id="Agrupar_2" data-name="Agrupar 2" xmlns="http://www.w3.org/2000/svg" width="239" height="326" viewBox="0 0 239 326">
  <defs>
    <style>
      .cls-1, .cls-2 {
        fill: none;
        stroke: #fff;
        fill-rule: evenodd;
      }

      .cls-1 {
        stroke-width: 0.73px;
      }

      .cls-2 {
        stroke-width: 1px;
      }

      .cls-3 {
        font-size: 29.167px;
        fill: #fff;
        text-anchor: middle;
        font-family: Poppins;
        font-weight: 500;
      }
    </style>
  </defs>
  <path id="Retângulo_5_copiar" data-name="Retângulo 5 copiar" class="cls-1" d="M32.688,4.353H205.937a29,29,0,0,1,29,29v259.29a29,29,0,0,1-29,29H32.688a29,29,0,0,1-29-29V33.353A29,29,0,0,1,32.688,4.353Z"/>
  <path id="Forma_9" data-name="Forma 9" class="cls-2" d="M104.793,144.966V167.5a1.878,1.878,0,0,1-1.878,1.878H84.139a1.878,1.878,0,0,1-1.878-1.878V144.966a1.883,1.883,0,0,1,1.878-1.877h18.776A1.883,1.883,0,0,1,104.793,144.966ZM131.08,133.7v33.8a1.878,1.878,0,0,1-1.878,1.878H110.426a1.878,1.878,0,0,1-1.878-1.878V133.7a1.883,1.883,0,0,1,1.878-1.877H129.2A1.883,1.883,0,0,1,131.08,133.7Zm26.286-11.265V167.5a1.877,1.877,0,0,1-1.877,1.878H136.713a1.878,1.878,0,0,1-1.878-1.878V122.435a1.883,1.883,0,0,1,1.878-1.878h18.776A1.883,1.883,0,0,1,157.366,122.435Zm3.358-27.443a1.876,1.876,0,0,0-1.48-.722H144.223a1.878,1.878,0,1,0,0,3.755h10.084a141.2,141.2,0,0,1-35.262,22.7,141.477,141.477,0,0,1-38.914,11.117,1.878,1.878,0,0,0,.25,3.739,2.018,2.018,0,0,0,.256-0.016,145.272,145.272,0,0,0,39.946-11.415,144.884,144.884,0,0,0,35.361-22.54l-2.277,9.107a1.876,1.876,0,0,0,1.366,2.275,1.848,1.848,0,0,0,.458.057,1.876,1.876,0,0,0,1.819-1.423L161.066,96.6A1.878,1.878,0,0,0,160.724,94.992Zm-1.48,81.894H80.384a1.878,1.878,0,1,1,0-3.755h78.86A1.878,1.878,0,1,1,159.244,176.886Z"/>
  <text id="BI" class="cls-3" x="4.062" y="219.617"><tspan x="4.062">BI</tspan></text>
</svg>
