<svg id="Agrupar_2" data-name="Agrupar 2" xmlns="http://www.w3.org/2000/svg" width="239" height="326" viewBox="0 0 239 326">
  <defs>
    <style>
      .cls-1, .cls-2 {
        fill: none;
        stroke: #fff;
        fill-rule: evenodd;
      }

      .cls-1 {
        stroke-width: 0.73px;
      }

      .cls-2 {
        stroke-width: 1px;
      }

      .cls-3 {
        font-size: 22.86px;
        fill: #fff;
        text-anchor: middle;
        font-family: Poppins;
        font-weight: 500;
      }
    </style>
  </defs>
  <path id="Retângulo_5_copiar" data-name="Retângulo 5 copiar" class="cls-1" d="M33.75,3.978H207a29,29,0,0,1,29,29v259.29a29,29,0,0,1-29,29H33.75a29,29,0,0,1-29-29V32.978A29,29,0,0,1,33.75,3.978Z"/>
  <path id="Forma_10" data-name="Forma 10" class="cls-2" d="M131.539,116.713a30.147,30.147,0,1,0,30.148,30.147A30.187,30.187,0,0,0,131.539,116.713Zm9.421,28.263a1.889,1.889,0,0,1,1.885,1.884v11.3a1.89,1.89,0,0,1-1.885,1.884h-7.536v3.769a1.885,1.885,0,0,1-3.769,0v-3.769h-7.537a1.884,1.884,0,1,1,0-3.768h16.958v-7.537H122.118a1.89,1.89,0,0,1-1.884-1.884V135.555a1.89,1.89,0,0,1,1.884-1.885h7.537V129.9a1.885,1.885,0,0,1,3.769,0v3.768h7.536a1.885,1.885,0,1,1,0,3.769H124v7.537H140.96ZM122.118,94.1H88.2a9.424,9.424,0,0,0-9.421,9.421v64.063a9.425,9.425,0,0,0,9.421,9.421h27.848a33.828,33.828,0,0,1-14.866-15.074H82.55V109.176h45.221v3.975a35.76,35.76,0,0,1,3.768-.207v-9.421A9.424,9.424,0,0,0,122.118,94.1Zm-16.957,9.421a1.884,1.884,0,1,1,1.884-1.884A1.89,1.89,0,0,1,105.161,103.523Z"/>
  <text id="Token_Criptografia" data-name="Token/Criptografia" class="cls-3" x="5.125" y="227.334"><tspan x="5.125">Token/Criptografia</tspan></text>
</svg>
