<svg id="Agrupar_2" data-name="Agrupar 2" xmlns="http://www.w3.org/2000/svg" width="239" height="326" viewBox="0 0 239 326">
  <defs>
    <style>
      .cls-1, .cls-2 {
        fill: none;
        stroke: #fff;
        fill-rule: evenodd;
      }

      .cls-1 {
        stroke-width: 0.73px;
      }

      .cls-2 {
        stroke-width: 1px;
      }

      .cls-3 {
        font-size: 29.159px;
        fill: #fff;
        text-anchor: middle;
        font-family: Poppins;
        font-weight: 500;
      }
    </style>
  </defs>
  <path id="Retângulo_5_copiar" data-name="Retângulo 5 copiar" class="cls-1" d="M33.579,4.371h173.25a29,29,0,0,1,29,29V292.629a29,29,0,0,1-29,29H33.579a29,29,0,0,1-29-29V33.371A29,29,0,0,1,33.579,4.371Z"/>
  <path id="Forma_3" data-name="Forma 3" class="cls-2" d="M125.885,141.664V153.5a1.794,1.794,0,0,1-1.894,1.658h-7.576a1.794,1.794,0,0,1-1.894-1.658V141.664a1.793,1.793,0,0,1,1.894-1.657h7.576A1.793,1.793,0,0,1,125.885,141.664Zm26.514,0V153.5a1.793,1.793,0,0,1-1.894,1.658H142.93a1.793,1.793,0,0,1-1.894-1.658V141.664a1.792,1.792,0,0,1,1.894-1.657h7.575A1.792,1.792,0,0,1,152.4,141.664Zm3.788-7.339h0a1.9,1.9,0,0,1-1.894,1.894H139.142a1.9,1.9,0,0,1-1.894-1.894h0a1.9,1.9,0,0,1,1.894-1.894h15.151A1.9,1.9,0,0,1,156.187,134.325Zm0,26.516h0a1.9,1.9,0,0,1-1.894,1.894H139.142a1.9,1.9,0,0,1-1.894-1.894h0a1.9,1.9,0,0,1,1.894-1.894h15.151A1.9,1.9,0,0,1,156.187,160.841Zm5.681,7.576v7.575a1.9,1.9,0,0,1-1.894,1.894H80.431a1.9,1.9,0,0,1-1.894-1.894v-7.575a1.9,1.9,0,0,1,1.894-1.894h79.543A1.9,1.9,0,0,1,161.868,168.417Zm-0.738-43.183-39.772-30.3a1.95,1.95,0,0,0-2.31,0l-39.772,30.3a1.928,1.928,0,0,0-.644,2.121,1.9,1.9,0,0,0,1.8,1.288h79.543a1.9,1.9,0,0,0,1.8-1.288A1.928,1.928,0,0,0,161.13,125.234ZM120.2,121.067a7.576,7.576,0,1,1,7.575-7.576A7.574,7.574,0,0,1,120.2,121.067Zm-20.833,20.6V153.5a1.793,1.793,0,0,1-1.894,1.658H89.9a1.793,1.793,0,0,1-1.894-1.658V141.664a1.792,1.792,0,0,1,1.894-1.657h7.576A1.792,1.792,0,0,1,99.37,141.664Zm3.788-7.339h0a1.9,1.9,0,0,1-1.894,1.894H86.113a1.9,1.9,0,0,1-1.894-1.894h0a1.9,1.9,0,0,1,1.894-1.894h15.151A1.9,1.9,0,0,1,103.158,134.325Zm0,26.516h0a1.9,1.9,0,0,1-1.894,1.894H86.113a1.9,1.9,0,0,1-1.894-1.894h0a1.9,1.9,0,0,1,1.894-1.894h15.151A1.9,1.9,0,0,1,103.158,160.841Zm26.514-26.516h0a1.9,1.9,0,0,1-1.894,1.894H112.627a1.9,1.9,0,0,1-1.894-1.894h0a1.9,1.9,0,0,1,1.894-1.894h15.151A1.9,1.9,0,0,1,129.672,134.325Zm0,26.516h0a1.9,1.9,0,0,1-1.894,1.894H112.627a1.9,1.9,0,0,1-1.894-1.894h0a1.9,1.9,0,0,1,1.894-1.894h15.151A1.9,1.9,0,0,1,129.672,160.841Z"/>
  <text id="Produtos_Bancários" data-name="Produtos Bancários" class="cls-3" x="4.953" y="229.617"><tspan x="4.953">Produtos Bancários</tspan></text>
</svg>
