<svg id="Agrupar_2" data-name="Agrupar 2" xmlns="http://www.w3.org/2000/svg" width="239" height="326" viewBox="0 0 239 326">
  <defs>
    <style>
      .cls-1, .cls-2 {
        fill: none;
        stroke: #fff;
        fill-rule: evenodd;
      }

      .cls-1 {
        stroke-width: 0.73px;
      }

      .cls-2 {
        stroke-width: 1px;
      }

      .cls-3 {
        font-size: 29.167px;
        fill: #fff;
        text-anchor: middle;
        font-family: Poppins;
        font-weight: 500;
      }
    </style>
  </defs>
  <path id="Retângulo_5_copiar" data-name="Retângulo 5 copiar" class="cls-1" d="M33.985,2.978H207.234a29,29,0,0,1,29,29v259.29a29,29,0,0,1-29,29H33.985a29,29,0,0,1-29-29V31.978A29,29,0,0,1,33.985,2.978Z"/>
  <path id="Forma_7" data-name="Forma 7" class="cls-2" d="M82.687,127.1a1.9,1.9,0,0,0,2.287-1.405,36.9,36.9,0,0,1,70.2-5.959l-4.449-3.562a1.9,1.9,0,0,0-2.37,2.965l9.487,7.6a1.894,1.894,0,0,0,1.185.416,1.871,1.871,0,0,0,.678-0.125,1.9,1.9,0,0,0,1.194-1.461l1.9-11.395a1.9,1.9,0,1,0-3.743-.625l-0.671,4.033a40.694,40.694,0,0,0-77.1,7.233A1.9,1.9,0,0,0,82.687,127.1Zm76.782,15.3a1.906,1.906,0,0,0-2.287,1.405,36.918,36.918,0,0,1-70.236,5.93l4.485,3.591a1.9,1.9,0,0,0,2.37-2.965l-9.488-7.6a1.9,1.9,0,0,0-3.056,1.17l-1.9,11.4a1.9,1.9,0,0,0,1.559,2.186,1.985,1.985,0,0,0,.314.026,1.9,1.9,0,0,0,1.87-1.587l0.666-4a40.707,40.707,0,0,0,77.105-7.265A1.9,1.9,0,0,0,159.469,142.4Zm-38.391-34.237a26.588,26.588,0,1,0,26.565,26.588A26.606,26.606,0,0,0,121.078,108.162Zm5.693,24.689a1.9,1.9,0,0,1,1.9,1.9v7.6a1.9,1.9,0,0,1-1.9,1.9h-3.8v1.9a1.9,1.9,0,1,1-3.8,0v-1.9h-3.8a1.9,1.9,0,0,1,0-3.8h9.487v-3.8h-9.487a1.9,1.9,0,0,1-1.9-1.9v-7.6a1.9,1.9,0,0,1,1.9-1.9h3.8v-1.9a1.9,1.9,0,1,1,3.8,0v1.9h3.8a1.9,1.9,0,0,1,0,3.8h-9.488v3.8h9.488Z"/>
  <text id="recarga_de_serviços" data-name="recarga de serviços" class="cls-3" x="5.359" y="226.334"><tspan x="5.359">recarga</tspan><tspan x="5.359" dy="35">de serviços</tspan></text>
</svg>
