<svg xmlns="http://www.w3.org/2000/svg" id="Agrupar_2" data-name="Agrupar 2" width="239" height="326" viewBox="0 0 239 326"><defs><style>      .cls-1, .cls-2 {        fill: none;        stroke: #fff;      }      .cls-1 {        stroke-width: 0.73px;      }      .cls-1, .cls-2, .cls-3 {        fill-rule: evenodd;      }      .cls-2 {        stroke-width: 1px;      }      .cls-3 {        fill: #fff;      }    </style></defs><path id="Ret&#xE2;ngulo_5_copiar" data-name="Ret&#xE2;ngulo 5 copiar" class="cls-1" d="M32.875,4.371h173.25a29,29,0,0,1,29,29V292.629a29,29,0,0,1-29,29H32.875a29,29,0,0,1-29-29V33.371A29,29,0,0,1,32.875,4.371Z"></path><path id="Forma_3" data-name="Forma 3" class="cls-2" d="M125.181,141.664V153.5a1.793,1.793,0,0,1-1.893,1.658h-7.576a1.793,1.793,0,0,1-1.894-1.658V141.664a1.792,1.792,0,0,1,1.894-1.657h7.576A1.792,1.792,0,0,1,125.181,141.664Zm26.515,0V153.5a1.793,1.793,0,0,1-1.894,1.658h-7.576a1.794,1.794,0,0,1-1.894-1.658V141.664a1.793,1.793,0,0,1,1.894-1.657H149.8A1.792,1.792,0,0,1,151.7,141.664Zm3.788-7.339h0a1.9,1.9,0,0,1-1.894,1.894H138.439a1.9,1.9,0,0,1-1.894-1.894h0a1.9,1.9,0,0,1,1.894-1.894H153.59A1.9,1.9,0,0,1,155.484,134.325Zm0,26.516h0a1.9,1.9,0,0,1-1.894,1.894H138.439a1.9,1.9,0,0,1-1.894-1.894h0a1.9,1.9,0,0,1,1.894-1.894H153.59A1.9,1.9,0,0,1,155.484,160.841Zm5.681,7.576v7.575a1.9,1.9,0,0,1-1.894,1.894H79.728a1.9,1.9,0,0,1-1.894-1.894v-7.575a1.9,1.9,0,0,1,1.894-1.894h79.543A1.9,1.9,0,0,1,161.165,168.417Zm-0.738-43.183-39.772-30.3a1.95,1.95,0,0,0-2.31,0l-39.772,30.3a1.928,1.928,0,0,0-.644,2.121,1.9,1.9,0,0,0,1.8,1.288h79.543a1.9,1.9,0,0,0,1.8-1.288A1.928,1.928,0,0,0,160.427,125.234ZM119.5,121.067a7.576,7.576,0,1,1,7.575-7.576A7.574,7.574,0,0,1,119.5,121.067Zm-20.833,20.6V153.5a1.793,1.793,0,0,1-1.894,1.658H89.2A1.793,1.793,0,0,1,87.3,153.5V141.664a1.792,1.792,0,0,1,1.894-1.657h7.576A1.792,1.792,0,0,1,98.667,141.664Zm3.788-7.339h0a1.9,1.9,0,0,1-1.894,1.894H85.41a1.9,1.9,0,0,1-1.894-1.894h0a1.9,1.9,0,0,1,1.894-1.894h15.151A1.9,1.9,0,0,1,102.455,134.325Zm0,26.516h0a1.9,1.9,0,0,1-1.894,1.894H85.41a1.9,1.9,0,0,1-1.894-1.894h0a1.9,1.9,0,0,1,1.894-1.894h15.151A1.9,1.9,0,0,1,102.455,160.841Zm26.514-26.516h0a1.9,1.9,0,0,1-1.894,1.894H111.924a1.9,1.9,0,0,1-1.894-1.894h0a1.9,1.9,0,0,1,1.894-1.894h15.151A1.9,1.9,0,0,1,128.969,134.325Zm0,26.516h0a1.9,1.9,0,0,1-1.894,1.894H111.924a1.9,1.9,0,0,1-1.894-1.894h0a1.9,1.9,0,0,1,1.894-1.894h15.151A1.9,1.9,0,0,1,128.969,160.841Z"></path><path id="Produtos_Banc&#xE1;rios" data-name="Produtos Banc&#xE1;rios" class="cls-3" d="M59.767,240.259V233.64h3.674c2.6,0,3.762,1.225,3.762,3.324,0,2.042-1.166,3.295-3.762,3.295H59.767Zm10.847-3.295c0-3.295-2.362-6.036-7.173-6.036h-7v20.266h3.324v-8.223h3.674C68.719,242.971,70.614,239.851,70.614,236.964Zm6.5,5.774c0-3.412,1.516-4.432,3.966-4.432h0.846v-3.441a5.233,5.233,0,0,0-4.811,2.595v-2.333H73.792v16.067h3.324v-8.456Zm23.181,0.408a8.194,8.194,0,1,0-16.387,0c0,5.045,3.47,8.311,8.048,8.311A8.047,8.047,0,0,0,100.3,243.146Zm-13,0c0-3.645,2.245-5.394,4.753-5.394,2.478,0,4.84,1.749,4.84,5.394s-2.449,5.424-4.928,5.424C89.45,248.57,87.292,246.791,87.292,243.146Zm15.192-.058c0,4.957,3.353,8.369,7.581,8.369a6.662,6.662,0,0,0,5.57-2.683v2.42h3.353V229.616h-3.353v7.757a7.4,7.4,0,0,0-5.541-2.508C105.837,234.865,102.484,238.131,102.484,243.088Zm13.151,0.058c0,3.47-2.362,5.424-4.87,5.424-2.479,0-4.87-2.012-4.87-5.482s2.391-5.336,4.87-5.336C113.273,237.752,115.635,239.705,115.635,243.146Zm22.277-8.019h-3.324v8.952c0,2.945-1.6,4.462-4.053,4.462-2.42,0-4.024-1.517-4.024-4.462v-8.952h-3.3v9.448c0,4.491,2.857,6.853,6.619,6.853a5.983,5.983,0,0,0,4.753-2.158v1.924h3.324V235.127Zm4.9,11.606c0,3.266,1.779,4.461,4.637,4.461h2.624v-2.77H148.03c-1.4,0-1.866-.5-1.866-1.691v-8.894h3.907v-2.712h-3.907v-4H142.81v4h-1.9v2.712h1.9v8.894Zm25.631-3.587a8.194,8.194,0,1,0-16.387,0c0,5.045,3.47,8.311,8.048,8.311A8.047,8.047,0,0,0,168.441,243.146Zm-13,0c0-3.645,2.245-5.394,4.753-5.394,2.479,0,4.841,1.749,4.841,5.394s-2.45,5.424-4.928,5.424C157.594,248.57,155.436,246.791,155.436,243.146ZM183.72,246.7c-0.175-5.8-9.243-4-9.243-7.232,0-1.079.933-1.808,2.711-1.808,1.808,0,2.887.962,3,2.362h3.324c-0.175-3.207-2.566-5.161-6.211-5.161-3.791,0-6.182,2.07-6.182,4.636,0,5.89,9.331,4.083,9.331,7.232,0,1.108-1.02,1.924-2.945,1.924-1.837,0-3.091-1.079-3.207-2.391h-3.441c0.146,2.916,2.857,5.191,6.707,5.191C181.358,251.457,183.72,249.416,183.72,246.7ZM59.607,280.383c0,1.953-1.37,3.09-3.616,3.09H51.5v-6.327h4.374C58.09,277.146,59.607,278.371,59.607,280.383Zm-0.525-8.836c0,1.866-1.312,2.887-3.47,2.887H51.5v-5.8h4.111C57.77,268.631,59.082,269.71,59.082,271.547Zm3.849,9.185a5.04,5.04,0,0,0-3.907-4.957,4.741,4.741,0,0,0,3.441-4.636c0-2.858-2.274-5.22-6.561-5.22H48.176v20.266h8.106C60.423,286.185,62.931,283.823,62.931,280.732Zm2.507-2.653c0,4.957,3.353,8.369,7.523,8.369a6.915,6.915,0,0,0,5.628-2.654v2.391h3.353V270.118H78.589v2.333a6.839,6.839,0,0,0-5.569-2.6C68.791,269.856,65.438,273.122,65.438,278.079Zm13.151,0.058c0,3.47-2.362,5.424-4.87,5.424-2.479,0-4.87-2.012-4.87-5.482s2.391-5.336,4.87-5.336C76.227,272.743,78.589,274.7,78.589,278.137Zm19.128,8.048h3.295v-9.477c0-4.49-2.828-6.852-6.59-6.852a6.181,6.181,0,0,0-4.782,2.1v-1.837H86.316v16.067H89.64V277.2c0-2.945,1.6-4.461,4.053-4.461,2.42,0,4.024,1.516,4.024,4.461v8.981Zm6.415-8.048c0,5.045,3.265,8.311,7.873,8.311a7.217,7.217,0,0,0,7.406-5.336h-3.586a3.67,3.67,0,0,1-3.82,2.536c-2.683,0-4.462-1.982-4.462-5.511,0-3.5,1.779-5.482,4.462-5.482a3.756,3.756,0,0,1,3.82,2.537h3.586c-0.9-3.382-3.47-5.336-7.406-5.336C107.4,269.856,104.132,273.122,104.132,278.137Zm17.495-.058c0,4.957,3.353,8.369,7.523,8.369a6.915,6.915,0,0,0,5.628-2.654v2.391h3.353V270.118h-3.353v2.333a6.841,6.841,0,0,0-5.57-2.6C124.98,269.856,121.627,273.122,121.627,278.079Zm13.151,0.058c0,3.47-2.362,5.424-4.87,5.424-2.478,0-4.87-2.012-4.87-5.482s2.392-5.336,4.87-5.336C132.416,272.743,134.778,274.7,134.778,278.137Zm-7.786-11.605v2.449l6.444-3.178v-2.829Zm18.837,11.2c0-3.412,1.516-4.432,3.965-4.432h0.846v-3.441a5.233,5.233,0,0,0-4.811,2.6v-2.333h-3.324v16.067h3.324v-8.456Zm7.872,8.456h3.325V270.118H153.7v16.067Zm1.692-18.195a2.129,2.129,0,1,0-2.129-2.129A2.1,2.1,0,0,0,155.393,267.99Zm21.315,10.147a8.194,8.194,0,1,0-16.388,0c0,5.045,3.47,8.311,8.048,8.311A8.048,8.048,0,0,0,176.708,278.137Zm-13,0c0-3.645,2.245-5.394,4.753-5.394,2.478,0,4.84,1.749,4.84,5.394s-2.449,5.424-4.928,5.424C165.861,283.561,163.7,281.782,163.7,278.137Zm28.284,3.558c-0.175-5.8-9.244-4-9.244-7.232,0-1.079.933-1.808,2.712-1.808,1.808,0,2.887.963,3,2.362h3.324c-0.175-3.207-2.566-5.161-6.211-5.161-3.791,0-6.182,2.07-6.182,4.636,0,5.891,9.331,4.083,9.331,7.232,0,1.108-1.021,1.924-2.945,1.924-1.837,0-3.091-1.079-3.208-2.391h-3.44c0.145,2.916,2.857,5.191,6.706,5.191C189.625,286.448,191.987,284.407,191.987,281.7Z"></path></svg>