<svg xmlns="http://www.w3.org/2000/svg" id="Agrupar_2" data-name="Agrupar 2" width="239" height="326" viewBox="0 0 239 326"><defs><style>      .cls-1, .cls-2 {        fill: none;        stroke: #fff;      }      .cls-1 {        stroke-width: 0.73px;      }      .cls-1, .cls-2, .cls-3 {        fill-rule: evenodd;      }      .cls-2 {        stroke-width: 1px;      }      .cls-3 {        fill: #fff;      }    </style></defs><path id="Ret&#xE2;ngulo_5_copiar" data-name="Ret&#xE2;ngulo 5 copiar" class="cls-1" d="M32.125,5.478h173.25a29,29,0,0,1,29,29v259.29a29,29,0,0,1-29,29H32.125a29,29,0,0,1-29-29V34.478A29,29,0,0,1,32.125,5.478Z"></path><path id="Forma_9" data-name="Forma 9" class="cls-2" d="M104.231,146.091v22.532a1.878,1.878,0,0,1-1.878,1.878H83.577a1.878,1.878,0,0,1-1.878-1.878V146.091a1.883,1.883,0,0,1,1.878-1.877h18.776A1.883,1.883,0,0,1,104.231,146.091Zm26.286-11.266v33.8a1.878,1.878,0,0,1-1.877,1.878H109.863a1.877,1.877,0,0,1-1.877-1.878v-33.8a1.883,1.883,0,0,1,1.877-1.877H128.64A1.883,1.883,0,0,1,130.517,134.825ZM156.8,123.56v45.063a1.878,1.878,0,0,1-1.878,1.878H136.15a1.878,1.878,0,0,1-1.878-1.878V123.56a1.883,1.883,0,0,1,1.878-1.878h18.776A1.883,1.883,0,0,1,156.8,123.56Zm3.357-27.443a1.875,1.875,0,0,0-1.48-.722h-15.02a1.878,1.878,0,1,0,0,3.755h10.084a141.2,141.2,0,0,1-35.263,22.7,141.464,141.464,0,0,1-38.913,11.117,1.878,1.878,0,0,0,.25,3.739,2.018,2.018,0,0,0,.256-0.016,145.275,145.275,0,0,0,39.946-11.415,144.86,144.86,0,0,0,35.36-22.54l-2.277,9.107a1.878,1.878,0,0,0,3.644.909L160.5,97.727A1.875,1.875,0,0,0,160.161,96.117Zm-1.48,81.894H79.822a1.878,1.878,0,1,1,0-3.755h78.859A1.878,1.878,0,1,1,158.681,178.011Z"></path><path id="BI" class="cls-3" d="M119.461,236.522a2.917,2.917,0,0,1-3.255,3.091h-4.042v-6.328H116.1A3.092,3.092,0,0,1,119.461,236.522Zm-0.473-8.835c0,1.866-1.181,2.886-3.123,2.886h-3.7v-5.8h3.7C117.807,224.771,118.988,225.85,118.988,227.687Zm3.465,9.185c0-2.42-1.575-4.578-3.517-4.957a4.7,4.7,0,0,0,3.1-4.637c0-2.857-2.048-5.219-5.906-5.219h-6.955v20.266h7.3C120.2,242.325,122.453,239.963,122.453,236.872Zm3.257,5.453H128.7V222.059H125.71v20.266Z"></path></svg>