<svg xmlns="http://www.w3.org/2000/svg" id="Agrupar_2" data-name="Agrupar 2" width="239" height="326" viewBox="0 0 239 326"><defs><style>      .cls-1, .cls-2 {        fill: none;        stroke: #fff;      }      .cls-1 {        stroke-width: 0.73px;      }      .cls-1, .cls-2, .cls-3 {        fill-rule: evenodd;      }      .cls-2 {        stroke-width: 1px;      }      .cls-3 {        fill: #fff;      }    </style></defs><path id="Ret&#xE2;ngulo_5_copiar" data-name="Ret&#xE2;ngulo 5 copiar" class="cls-1" d="M32.875,5.447h173.25a29,29,0,0,1,29,29v259.29a29,29,0,0,1-29,29H32.875a29,29,0,0,1-29-29V34.447A29,29,0,0,1,32.875,5.447Z"></path><path id="Forma_8" data-name="Forma 8" class="cls-2" d="M124.776,131.536a1.894,1.894,0,1,0,0-3.788h-3.788v-1.894a1.894,1.894,0,0,0-3.788,0v1.894h-3.789a1.894,1.894,0,0,0-1.894,1.894v7.577a1.894,1.894,0,0,0,1.894,1.894h9.471V142.9h-9.471a1.894,1.894,0,0,0,0,3.788H117.2v1.894a1.894,1.894,0,1,0,3.788,0v-1.894h3.788a1.894,1.894,0,0,0,1.894-1.894v-7.576a1.894,1.894,0,0,0-1.894-1.894h-9.471v-3.789h9.471Zm34.1-3.788h-7.009a34.877,34.877,0,0,0-3.352-7.785l4.129-4.129a1.909,1.909,0,0,0,0-2.69l-9.471-9.471a1.911,1.911,0,0,0-2.69,0l-4.129,4.13a34.88,34.88,0,0,0-7.785-3.353V97.442a1.9,1.9,0,0,0-1.894-1.894H111.517a1.9,1.9,0,0,0-1.894,1.894v7.008a34.9,34.9,0,0,0-7.785,3.353l-4.129-4.13a1.911,1.911,0,0,0-2.69,0l-9.471,9.471a1.91,1.91,0,0,0,0,2.69l4.129,4.129a34.879,34.879,0,0,0-3.353,7.785H79.317a1.9,1.9,0,0,0-1.894,1.894v15.153a1.9,1.9,0,0,0,1.894,1.894h7.008a34.879,34.879,0,0,0,3.353,7.785L85.549,158.6a1.91,1.91,0,0,0,0,2.69l9.471,9.471a1.909,1.909,0,0,0,2.69,0l4.129-4.129a34.9,34.9,0,0,0,7.785,3.352V177a1.9,1.9,0,0,0,1.894,1.894H126.67A1.9,1.9,0,0,0,128.564,177v-7.009a34.877,34.877,0,0,0,7.785-3.352l4.129,4.129a1.909,1.909,0,0,0,2.69,0l9.471-9.471a1.909,1.909,0,0,0,0-2.69l-4.129-4.129a34.877,34.877,0,0,0,3.352-7.785h7.009a1.9,1.9,0,0,0,1.894-1.894V129.642A1.9,1.9,0,0,0,158.871,127.748Zm-56.825,9.471a17.048,17.048,0,1,1,17.048,17.047A17.074,17.074,0,0,1,102.046,137.219Z"></path><path id="ERP_BPO" data-name="ERP/BPO" class="cls-3" d="M75.639,230.091H65.561v20.295H75.639v-2.712H68.553v-6.211h6.3v-2.712h-6.3V232.8h7.086v-2.712ZM89,236.185a3.1,3.1,0,0,1-3.386,3.441H82.307v-6.794h3.307A3.024,3.024,0,0,1,89,236.185Zm-9.684-6.065v20.266h2.992v-8.107h2.283l4.2,8.107h3.569l-4.514-8.4a5.687,5.687,0,0,0,4.225-5.8c0-3.3-2.126-6.065-6.456-6.065h-6.3ZM98.9,239.451v-6.619H102.2c2.336,0,3.385,1.224,3.385,3.324,0,2.041-1.049,3.295-3.385,3.295H98.9Zm9.763-3.295c0-3.3-2.126-6.036-6.456-6.036h-6.3v20.266H98.9v-8.223H102.2C106.954,242.163,108.66,239.043,108.66,236.156Zm2.5,19.333H114.1l7.139-32.63h-2.966ZM135.3,244.583a2.917,2.917,0,0,1-3.255,3.091h-4.041v-6.328h3.936A3.092,3.092,0,0,1,135.3,244.583Zm-0.473-8.835c0,1.866-1.181,2.887-3.123,2.887h-3.7v-5.8h3.7C133.65,232.832,134.831,233.911,134.831,235.748Zm3.465,9.185c0-2.42-1.575-4.578-3.517-4.957a4.7,4.7,0,0,0,3.1-4.636c0-2.858-2.047-5.22-5.905-5.22h-6.955v20.266h7.3C136.039,250.386,138.3,248.024,138.3,244.933Zm6.249-5.482v-6.619h3.307c2.336,0,3.385,1.224,3.385,3.324,0,2.041-1.049,3.295-3.385,3.295h-3.307Zm9.763-3.295c0-3.3-2.126-6.036-6.456-6.036h-6.3v20.266h2.992v-8.223h3.307C152.6,242.163,154.308,239.043,154.308,236.156Zm20.5,4.053c0-6.065-4.12-10.351-9.317-10.351-5.144,0-9.317,4.286-9.317,10.351,0,6.095,4.173,10.381,9.317,10.381C170.688,250.59,174.808,246.3,174.808,240.209Zm-15.563,0c0-4.578,2.624-7.436,6.246-7.436s6.246,2.858,6.246,7.436-2.624,7.494-6.246,7.494S159.245,244.787,159.245,240.209Z"></path></svg>